<svg version="1.1" id="Layer_1" xmlns="http://www.w3.org/2000/svg" xmlns:xlink="http://www.w3.org/1999/xlink" x="0px" y="0px"
	 width="100%" viewBox="0 0 512 512" enable-background="new 0 0 512 512" xml:space="preserve">
<path fill="#000000" opacity="1.000000" stroke="none" 
	d="
M271.180298,438.126465 
	C283.839508,433.108643 296.192749,428.141907 308.419495,422.881287 
	C311.868622,421.397247 314.486267,421.536011 317.601501,423.754456 
	C325.061890,429.067291 332.784210,434.012665 340.412415,439.088959 
	C341.481506,439.800354 342.376953,440.950562 344.018463,440.652252 
	C345.186829,439.058258 344.632172,437.169434 344.632355,435.423218 
	C344.639893,366.925232 344.643555,298.427216 344.557098,229.929291 
	C344.534424,211.946213 344.099213,193.963364 344.121368,175.980728 
	C344.126526,171.800827 342.572449,169.424377 339.173553,167.112747 
	C305.011871,143.879181 270.986938,120.444626 236.875687,97.136627 
	C234.020554,95.185738 232.679474,93.113640 234.173248,89.819496 
	C236.538712,89.459038 237.784195,91.055672 239.229630,92.044357 
	C274.570526,116.218201 309.865356,140.459488 345.243683,164.578369 
	C348.168671,166.572464 349.413391,168.715469 349.409912,172.316086 
	C349.322144,263.311432 349.344757,354.306885 349.325775,445.302338 
	C349.325439,446.927307 349.698059,448.634369 348.713135,450.218567 
	C346.622223,450.668732 345.351746,449.103516 343.905334,448.126465 
	C334.795166,441.972260 325.660950,435.849731 316.677063,429.514801 
	C313.757690,427.456268 311.218842,427.164948 307.914368,428.622589 
	C296.945374,433.461029 285.796783,437.893433 274.844940,442.768768 
	C271.862854,444.096252 269.615479,444.094025 267.098022,442.066956 
	C264.637726,440.085938 262.087006,438.143555 259.338043,436.610992 
	C254.582535,433.959625 251.631744,430.674072 252.529099,424.697601 
	C252.916092,422.120178 246.139236,415.559235 243.597992,415.681366 
	C240.164627,415.846344 238.260590,418.000824 237.853806,421.398804 
	C228.419449,417.768311 226.653961,415.237823 226.652298,405.624237 
	C226.649963,392.124603 226.562042,378.623962 226.716400,365.126099 
	C226.754593,361.785278 225.809555,359.568146 222.938904,357.673767 
	C214.598694,352.169800 206.565353,346.196014 198.162628,340.793854 
	C194.243164,338.274017 191.943665,335.464722 192.750961,330.675232 
	C192.860245,330.026947 192.673721,329.329102 192.781250,328.680206 
	C193.925461,321.775970 190.115387,318.244171 185.337433,313.537201 
	C175.345978,303.694183 163.735046,296.280029 152.723373,287.952698 
	C150.866547,286.548523 150.698730,284.660461 150.700882,282.610901 
	C150.726593,258.111664 150.775879,233.612320 150.713135,209.113281 
	C150.705414,206.099014 151.690338,204.091904 154.361237,202.649002 
	C157.582138,200.908966 160.691147,198.951691 163.783493,196.986008 
	C169.146317,193.577072 169.410797,189.318375 164.258469,185.627350 
	C144.484802,171.461838 124.724930,157.272842 104.738014,143.412567 
	C100.411842,140.412506 98.383377,137.294250 98.740303,131.972031 
	C99.183571,125.362282 98.846550,118.700203 98.846550,110.272285 
	C121.901108,126.174049 143.793945,141.274536 165.808075,156.458679 
	C169.178726,148.581955 168.393585,145.677551 162.375656,141.448257 
	C142.882339,127.748665 123.450256,113.960915 103.867088,100.391136 
	C100.182419,97.837898 98.632561,95.012062 98.795052,90.472847 
	C99.132454,81.047600 98.896935,71.601845 98.896935,62.153404 
	C101.842018,61.789207 103.269249,63.372131 104.833000,64.455338 
	C160.164886,102.783592 215.485443,141.128235 270.762482,179.535507 
	C272.898468,181.019608 274.695099,181.422668 277.178925,180.485458 
	C283.689728,178.028809 290.303009,175.843658 297.478241,173.339966 
	C293.235168,169.184006 288.676514,166.525787 284.323059,163.639679 
	C281.127380,161.521103 279.774414,158.969177 281.170624,155.193771 
	C283.336823,154.210693 284.600250,155.938278 286.011261,156.876190 
	C291.559113,160.563934 297.126678,164.234589 302.499268,168.167938 
	C305.080902,170.057983 307.486908,170.472351 310.370789,169.216995 
	C314.138855,167.576767 318.351654,167.060867 322.688690,164.500015 
	C301.921173,149.431610 280.509125,136.173309 260.676544,120.701752 
	C263.315247,119.399094 264.887909,120.837669 266.417908,121.888878 
	C286.463501,135.661362 306.464844,149.498230 326.479462,163.315826 
	C327.300812,163.882858 328.129608,164.441406 328.977936,164.966690 
	C338.984467,171.162933 339.116364,171.466293 337.066528,184.193466 
	C334.447083,184.730484 333.001495,182.502686 331.042267,181.529358 
	C329.147125,180.587891 327.334320,178.137665 324.902863,181.170731 
	C325.847198,183.306473 327.964111,184.266785 329.773376,185.083450 
	C336.489166,188.114777 338.181122,193.120392 338.151001,200.290771 
	C337.962036,245.287888 338.236908,290.286926 338.345154,335.285339 
	C338.371613,346.284973 338.149475,357.290131 338.448151,368.281708 
	C338.565277,372.591431 336.951965,374.370697 332.989929,375.656647 
	C320.007996,379.870148 307.171326,384.529541 294.247986,388.926941 
	C291.775543,389.768188 289.354889,391.086426 286.264099,390.653198 
	C284.450073,383.108215 286.996368,375.080902 284.743195,367.329407 
	C281.495483,368.459961 282.413727,370.617432 282.394409,372.230560 
	C282.298737,380.229156 282.350525,388.229462 282.351440,396.229187 
	C282.352203,402.810883 281.627472,403.565613 274.553162,404.266541 
	C273.100220,402.572815 273.693390,400.489227 273.685547,398.577423 
	C273.626740,384.244720 273.713074,369.911377 273.632690,355.578888 
	C273.336456,302.753601 273.054108,249.927979 272.564423,197.104355 
	C272.520355,192.347931 274.464172,190.649307 278.345490,188.232773 
	C285.558899,183.741638 290.443054,186.394775 296.124939,190.653427 
	C304.116821,196.643448 312.547852,202.049637 320.826111,207.653763 
	C322.722748,208.937729 324.529877,210.478806 327.580566,210.884689 
	C328.309174,204.910645 328.178680,199.020630 327.726257,193.142548 
	C327.567078,191.074722 325.498657,190.332504 324.040802,189.309616 
	C319.052185,185.809433 313.993500,182.409103 308.071686,178.362671 
	C316.518066,175.448593 323.821594,172.928818 331.306915,170.346313 
	C329.564423,167.245331 327.609161,166.642517 324.785858,167.598114 
	C307.126160,173.575455 289.350281,179.201706 271.902069,185.811874 
	C267.625580,187.432007 266.193726,189.578262 266.238403,194.185120 
	C266.744232,246.339890 267.017456,298.496918 267.351166,350.653351 
	C267.361664,352.297546 267.352509,353.941864 267.352509,355.393799 
	C265.482574,356.489288 264.503845,355.291962 263.467743,354.592407 
	C247.314148,343.685699 231.221436,332.688141 215.013733,321.862640 
	C209.318115,318.058380 212.389191,312.496674 211.714340,307.699036 
	C211.194168,304.000916 214.449402,303.696228 216.780716,302.611267 
	C218.372055,301.870697 219.917618,301.031738 221.434875,299.887665 
	C211.944916,299.765228 203.477325,294.237549 193.882538,295.275452 
	C192.498260,295.425201 191.320465,294.666077 190.207306,293.901733 
	C183.477493,289.280518 176.746536,284.660919 170.016479,280.040070 
	C168.286560,278.852325 167.061920,277.374908 167.073105,275.128021 
	C167.143555,260.967285 167.195938,246.806412 167.283035,232.645767 
	C167.288055,231.830841 167.545380,231.017456 167.721741,229.991272 
	C172.210602,229.001846 176.182510,231.458221 180.405426,231.686768 
	C197.900940,232.633698 209.986694,244.325577 223.443985,253.293716 
	C225.615967,254.741150 225.300919,257.043396 225.305374,259.185272 
	C225.329590,270.851501 225.456284,282.520111 225.254272,294.182800 
	C225.191605,297.800232 226.403030,300.292725 229.403015,302.023651 
	C234.097183,304.732025 238.113861,308.550171 243.131058,310.784332 
	C244.576141,308.899994 244.072952,306.998627 244.074234,305.248108 
	C244.084641,290.915405 243.915649,276.581848 244.027328,262.250305 
	C244.056747,258.476685 242.649399,256.243561 239.517181,254.149216 
	C222.067154,242.481415 204.690567,230.697845 187.496826,218.656906 
	C183.268204,215.695541 179.818954,215.051086 175.398132,218.002701 
	C171.538330,220.579742 167.266632,222.566910 163.081253,224.619614 
	C160.332916,225.967484 159.286957,227.916397 159.305817,230.964279 
	C159.402679,246.629868 159.389236,262.296631 159.304779,277.962402 
	C159.289932,280.717468 160.111465,282.614624 162.467163,284.218170 
	C173.759949,291.905426 184.995468,299.679413 196.139023,307.580994 
	C198.260422,309.085205 200.423416,309.040375 202.717560,308.984924 
	C204.594559,311.436371 203.981308,314.218872 203.818893,316.773560 
	C203.537064,321.206665 205.043182,324.086365 208.907272,326.630798 
	C227.131561,338.630981 245.098053,351.022034 263.271332,363.100922 
	C266.259094,365.086700 267.417755,367.261993 267.423767,370.832611 
	C267.457458,390.826935 267.696198,410.821228 267.947418,430.814514 
	C267.981293,433.511047 267.218262,436.708618 271.180298,438.126465 
M222.017563,277.496674 
	C222.044083,272.333984 221.836792,267.156158 222.169205,262.013245 
	C222.448013,257.699738 221.029694,254.843384 217.282944,252.559998 
	C211.887863,249.272049 206.819153,245.451721 201.564865,241.927582 
	C200.007568,240.883072 198.493256,239.545822 196.138062,239.636719 
	C198.011215,245.402756 198.089203,251.033524 197.888519,256.661102 
	C197.769318,260.003662 198.802704,262.268219 201.966675,263.868622 
	C207.160004,266.495514 212.088989,269.640472 217.239288,272.358887 
	C219.731903,273.674530 221.030853,275.420685 221.015747,278.236755 
	C220.997894,281.566833 221.049728,284.898193 221.128922,288.227631 
	C221.199097,291.178650 219.857040,292.492310 216.878510,292.282013 
	C211.899109,291.930328 206.880096,291.160095 201.936798,291.479584 
	C191.432144,292.158478 185.232925,285.345917 178.741318,278.969604 
	C176.521820,276.789520 175.891068,273.776215 175.895187,270.665894 
	C175.906631,262.005707 175.980942,253.343826 175.831390,244.686050 
	C175.768478,241.043198 177.221725,239.614197 180.835907,239.606705 
	C184.466476,239.599197 188.178238,239.566360 193.017059,237.633652 
	C186.302872,236.158844 180.937637,235.125381 175.654388,233.771820 
	C171.758331,232.773666 170.150345,233.732956 170.221313,238.004135 
	C170.412170,249.492615 170.388733,260.987152 170.252304,272.476898 
	C170.216339,275.506042 171.287811,277.446289 173.772995,279.050323 
	C179.364410,282.659149 184.849655,286.433136 190.358841,290.168335 
	C192.940353,291.918579 195.829407,292.504578 198.872620,292.635681 
	C205.189865,292.907715 211.513107,293.100464 217.819870,293.531067 
	C220.956253,293.745178 222.010971,292.402069 221.956772,289.485046 
	C221.888733,285.822998 221.989532,282.157837 222.017563,277.496674 
M309.016541,207.531113 
	C300.873108,202.063858 292.729706,196.596588 284.193329,190.865494 
	C283.037354,196.650711 283.583313,201.475754 283.327362,206.259323 
	C283.175110,209.105103 284.395477,210.838028 286.680267,212.381226 
	C296.450195,218.980026 306.051758,225.830170 315.876770,232.344254 
	C319.501312,234.747345 322.720001,238.002869 327.474365,239.181976 
	C328.518433,233.920959 327.816803,228.952408 328.016815,224.026627 
	C328.131836,221.193588 326.786743,219.436920 324.489288,217.956924 
	C319.464508,214.719971 314.558685,211.298416 309.016541,207.531113 
M322.633270,333.689484 
	C322.299835,332.071503 322.196350,330.361603 321.592865,328.851532 
	C319.070892,322.540955 314.584656,318.326263 307.709351,317.452637 
	C300.326324,316.514557 294.225250,319.107697 290.256744,325.549957 
	C286.551117,331.565521 286.491394,337.772095 290.372375,343.838501 
	C294.671783,350.558990 301.859833,353.399353 309.811920,351.542419 
	C316.977753,349.869080 321.921722,343.303101 322.633270,333.689484 
M235.589478,161.961899 
	C230.446198,158.541718 225.711761,154.455475 219.689819,151.492981 
	C220.376480,156.045349 248.502243,176.654541 254.429825,177.488693 
	C254.362152,176.815445 254.536545,175.890579 254.204498,175.641891 
	C248.232254,171.168976 242.198792,166.777771 235.589478,161.961899 
M297.480194,244.976730 
	C304.965973,250.192139 312.413330,255.464050 319.955963,260.595886 
	C323.094391,262.731171 324.609253,265.268555 324.408264,269.266205 
	C324.074066,275.914124 324.317200,282.591064 324.317200,289.255798 
	C324.881653,289.250488 325.446075,289.245178 326.010529,289.239899 
	C326.010529,283.347015 325.666687,277.428314 326.106506,271.568451 
	C326.553040,265.619324 324.916656,261.384186 319.350891,258.586334 
	C316.123718,256.964081 313.348846,254.446854 310.355347,252.353943 
	C302.399384,246.791489 294.435211,241.240753 286.474274,235.685364 
	C286.263458,235.977005 286.052643,236.268646 285.841827,236.560272 
	C289.509460,239.255051 293.177124,241.949844 297.480194,244.976730 
M171.752228,207.157028 
	C170.785187,207.936996 169.246353,208.383133 170.410995,211.270828 
	C179.353592,207.729584 187.024643,202.164169 196.032928,197.306183 
	C194.373199,196.283173 193.700226,195.547989 193.311279,195.675980 
	C185.695343,198.182190 179.379501,203.169678 171.752228,207.157028 
M325.385620,253.825806 
	C326.450745,254.387955 327.353577,255.452881 330.134216,254.825043 
	C314.716431,244.324921 300.187012,234.429810 285.657562,224.534683 
	C285.378937,224.940903 285.100311,225.347107 284.821686,225.753326 
	C298.170990,234.970474 311.520294,244.187637 325.385620,253.825806 
M328.147888,302.333191 
	C326.635864,300.235016 324.780914,299.669220 322.637848,301.312622 
	C321.307800,302.332520 321.026764,303.817383 321.649200,305.348846 
	C322.275787,306.890472 323.566254,307.722626 325.194275,307.537750 
	C327.859528,307.235077 328.828949,305.543396 328.147888,302.333191 
z"/>
<path fill="#000000" opacity="1.000000" stroke="none" 
	d="
M160.719666,369.174988 
	C157.411270,367.539703 156.786652,365.003265 156.795090,361.929138 
	C156.805435,358.160767 148.998199,350.393738 145.389557,350.377899 
	C142.310257,350.364380 141.584961,353.039856 140.339172,355.654999 
	C135.423447,352.167938 130.857635,348.884674 126.240189,345.675720 
	C124.422188,344.412292 124.550697,342.646606 124.552849,340.778351 
	C124.589561,308.957062 124.502167,277.135132 124.698517,245.314957 
	C124.730736,240.092468 123.255890,236.543442 118.652809,233.816666 
	C113.076569,230.513412 107.911674,226.521378 102.507942,222.918640 
	C100.272545,221.428284 98.892502,219.665970 98.899712,216.820297 
	C98.945740,198.660629 98.912918,180.500748 98.936523,162.341003 
	C98.937531,161.570358 99.239410,160.800125 99.663307,158.780670 
	C117.978287,171.357880 135.684769,183.517227 153.756531,195.927429 
	C150.652069,199.096146 147.197296,200.355240 144.041245,201.980179 
	C141.359482,203.360886 140.140015,205.093140 140.154587,208.213318 
	C140.278320,234.702927 140.311874,261.193268 140.241714,287.683014 
	C140.233597,290.746918 141.443359,292.544861 143.862701,294.192780 
	C152.944931,300.379181 161.920410,306.722534 170.922028,313.026855 
	C173.108078,314.557861 175.026733,315.855896 178.178436,315.083069 
	C181.962173,314.155212 188.701385,320.208954 189.068848,324.131531 
	C189.099869,324.462616 189.160629,324.812225 189.092209,325.128235 
	C186.634674,336.479736 192.381165,342.914124 201.814606,347.913147 
	C207.949890,351.164429 213.367615,355.766602 219.122040,359.741516 
	C220.959335,361.010651 222.362610,362.329224 222.345428,364.922119 
	C222.249390,379.415710 222.306396,393.910309 222.285522,408.404510 
	C222.284851,408.872101 222.007690,409.339294 221.499695,410.940674 
	C201.129410,396.936615 181.082596,383.154877 160.719666,369.174988 
z"/>
<path fill="#000000" opacity="1.000000" stroke="none" 
	d="
M399.357422,279.143890 
	C399.351074,291.435364 399.220978,303.246185 399.400635,315.052246 
	C399.468811,319.535492 397.794006,321.400055 393.286804,321.344452 
	C382.643921,321.213165 371.997498,321.255829 361.353912,321.365814 
	C358.009674,321.400330 356.590851,320.230743 356.622711,316.718536 
	C356.749542,302.748596 356.757690,288.775970 356.612366,274.806366 
	C356.575897,271.301880 357.999390,270.018524 361.288666,270.040344 
	C371.932709,270.110901 382.579529,269.993317 393.220367,270.200623 
	C398.488251,270.303284 399.269196,271.643616 399.357422,279.143890 
z"/>
<path fill="#000000" opacity="1.000000" stroke="none" 
	d="
M356.801880,334.739807 
	C356.711700,333.614044 356.673492,332.948273 356.669556,332.282318 
	C356.626740,325.046173 356.628174,325.017120 363.780365,325.016296 
	C374.441895,325.015045 385.103424,325.085419 395.764923,325.075775 
	C402.889221,325.069305 403.614716,324.335175 403.617523,317.466339 
	C403.623383,303.139862 403.626129,288.813416 403.616699,274.486938 
	C403.611755,266.970337 402.969238,266.330414 395.255859,266.314575 
	C384.927490,266.293396 374.599091,266.319153 364.270691,266.315308 
	C356.501434,266.312408 356.492737,266.305573 356.675171,258.678253 
	C356.702393,257.540405 356.855621,256.405548 356.950256,255.272522 
	C359.648315,254.067276 362.323273,254.007996 364.945312,254.140152 
	C379.093658,254.853378 393.241272,254.633362 407.392365,254.320282 
	C413.130188,254.193329 415.314697,256.254944 415.326508,262.016907 
	C415.372620,284.505859 415.368073,306.995026 415.323700,329.483978 
	C415.312073,335.373657 413.462708,337.191528 407.494049,337.213989 
	C392.501465,337.270447 377.508453,337.271942 362.515991,337.206024 
	C360.489197,337.197113 358.031311,337.871063 356.801880,334.739807 
z"/>
<path fill="#000000" opacity="1.000000" stroke="none" 
	d="
M309.938843,390.102936 
	C301.960876,392.820435 294.355316,395.406952 286.834625,397.964630 
	C285.144012,394.996796 286.526093,393.897827 288.395721,393.233765 
	C297.126801,390.132507 305.881012,387.096283 314.631134,384.048859 
	C315.937439,383.593872 317.373474,383.243622 317.925171,384.996552 
	C318.440887,386.635040 317.159302,387.416626 315.905701,387.933136 
	C314.072144,388.688538 312.179047,389.299438 309.938843,390.102936 
z"/>
<path fill="#000000" opacity="1.000000" stroke="none" 
	d="
M382.110626,248.439758 
	C381.846710,245.555054 381.864075,243.073883 381.666290,240.609970 
	C381.412354,237.446411 382.785950,236.085648 385.920197,236.035706 
	C389.102356,235.985046 390.478912,237.398453 390.263123,240.535980 
	C390.183960,241.686584 390.270508,242.847946 390.264038,244.004303 
	C390.229095,250.262833 388.544891,251.285919 382.110626,248.439758 
z"/>
<path fill="#000000" opacity="1.000000" stroke="none" 
	d="
M366.655823,242.084305 
	C366.313599,238.155197 367.120209,235.880310 371.354248,236.005264 
	C375.666229,236.132523 375.636902,238.997269 375.247589,241.819794 
	C374.863190,244.606522 377.144958,248.460251 372.747070,249.890823 
	C368.161163,251.382568 366.694519,249.535278 366.655823,242.084305 
z"/>
<path fill="#000000" opacity="1.000000" stroke="none" 
	d="
M396.857544,238.502380 
	C398.656982,235.402603 401.184906,235.838120 403.510254,236.681274 
	C405.686737,237.470413 405.165253,239.701355 405.143036,241.435577 
	C405.111694,243.878601 405.895569,246.581329 404.396973,248.686172 
	C403.118530,250.481781 400.833313,250.040863 398.862152,249.717270 
	C396.950165,249.403381 396.700562,247.941071 396.708405,246.367096 
	C396.720764,243.892303 396.755890,241.417603 396.857544,238.502380 
z"/>
<path fill="#000000" opacity="1.000000" stroke="none" 
	d="
M431.704224,277.957214 
	C434.706848,284.198151 433.657410,286.177704 427.486420,285.990723 
	C424.334808,285.895264 419.606842,287.862701 419.657898,281.569489 
	C419.679321,278.933167 420.488129,277.506470 423.339233,277.653046 
	C425.972534,277.788391 428.613586,277.773376 431.704224,277.957214 
z"/>
<path fill="#000000" opacity="1.000000" stroke="none" 
	d="
M334.061035,388.979401 
	C325.816986,390.204559 318.297363,393.744446 310.481659,396.341248 
	C307.906586,397.196899 305.409454,398.558197 302.316681,398.297729 
	C304.297302,394.502014 332.945160,384.294983 337.798279,385.353088 
	C337.784302,387.548645 335.481964,387.412018 334.255707,388.796326 
	C334.018616,389.001648 334.061035,388.979401 334.061035,388.979401 
z"/>
<path fill="#000000" opacity="1.000000" stroke="none" 
	d="
M405.124847,352.729553 
	C403.742706,356.529541 400.903534,355.357391 398.670105,355.037506 
	C396.153534,354.677063 396.855255,352.268433 396.752808,350.554352 
	C396.653931,348.899933 396.816437,347.230865 396.741699,345.573761 
	C396.621277,342.905457 397.662506,341.586578 400.496185,341.650604 
	C403.069031,341.708740 405.206421,342.002838 405.175140,345.292328 
	C405.153046,347.616516 405.178772,349.941223 405.124847,352.729553 
z"/>
<path fill="#000000" opacity="1.000000" stroke="none" 
	d="
M390.258057,349.914551 
	C390.597626,353.949890 389.193939,355.520782 385.408844,355.392456 
	C381.643005,355.264709 381.664734,352.922791 381.680267,350.313568 
	C381.687195,349.148193 381.706390,347.981995 381.673370,346.817505 
	C381.593140,343.988678 381.602570,341.603333 385.685791,341.592834 
	C389.761749,341.582397 390.447937,343.685516 390.240662,346.947906 
	C390.188019,347.776398 390.249084,348.612122 390.258057,349.914551 
z"/>
<path fill="#000000" opacity="1.000000" stroke="none" 
	d="
M375.235809,346.160767 
	C375.253174,348.121002 375.162354,349.619141 375.283386,351.099945 
	C375.550598,354.368713 374.044098,355.406097 370.884430,355.404144 
	C367.576202,355.402130 366.437103,353.992645 366.659790,350.900391 
	C366.778442,349.253021 366.701172,347.589813 366.676270,345.934265 
	C366.641418,343.613190 366.833374,341.631470 369.996948,341.646973 
	C372.893311,341.661194 375.451019,341.784882 375.235809,346.160767 
z"/>
<path fill="#000000" opacity="1.000000" stroke="none" 
	d="
M419.739441,323.217194 
	C422.736847,317.704865 427.368134,320.402496 431.293762,320.517609 
	C433.802338,320.591187 433.203339,323.155792 433.307373,324.907043 
	C433.440186,327.142456 432.474548,328.359375 430.139587,328.346558 
	C428.145782,328.335632 426.142334,328.251862 424.159760,328.409332 
	C420.609436,328.691376 419.305054,327.022614 419.739441,323.217194 
z"/>
<path fill="#000000" opacity="1.000000" stroke="none" 
	d="
M423.183655,314.334045 
	C418.790161,313.996704 419.777008,311.024292 419.804840,308.722870 
	C419.835083,306.221375 421.819244,306.029388 423.688080,305.964264 
	C425.663849,305.895386 427.643585,305.943573 429.621613,305.936493 
	C432.752075,305.925293 433.336426,307.822388 433.351776,310.501740 
	C433.367310,313.208862 432.349701,314.484802 429.591675,314.369781 
	C427.616547,314.287384 425.635162,314.354706 423.183655,314.334045 
z"/>
<path fill="#000000" opacity="1.000000" stroke="none" 
	d="
M433.037598,298.803467 
	C429.487610,301.275574 425.798706,300.216797 422.250305,300.085815 
	C419.424591,299.981476 419.748810,297.503296 419.707794,295.546265 
	C419.667603,293.628326 419.833008,291.791473 422.440125,291.741516 
	C423.930725,291.712952 425.421265,291.647949 426.911774,291.649780 
	C433.414703,291.657806 433.414703,291.664490 433.037598,298.803467 
z"/>
<path fill="#000000" opacity="1.000000" stroke="none" 
	d="
M433.309692,267.128601 
	C433.452667,269.898560 432.743988,271.440887 430.063782,271.376221 
	C427.760651,271.320648 425.453766,271.313599 423.151001,271.376251 
	C420.165802,271.457428 419.700928,269.627716 419.669769,267.201965 
	C419.640869,264.953552 420.096741,263.216827 422.749329,263.152954 
	C425.215515,263.093567 427.686646,263.096130 430.151825,263.180603 
	C432.329193,263.255188 433.455353,264.421356 433.309692,267.128601 
z"/>
<path fill="#000000" opacity="1.000000" stroke="none" 
	d="
M335.057770,392.977783 
	C325.508545,394.663116 316.808563,398.945251 307.680450,401.918121 
	C306.210754,402.396759 304.763977,403.738129 302.125671,401.468628 
	C312.318665,395.794525 323.394348,393.767609 333.769226,389.189453 
	C334.061035,388.979401 334.018616,389.001648 334.000214,389.016754 
	C334.640869,388.972412 335.308563,388.820404 335.956482,388.880646 
	C336.556244,388.936340 337.134857,389.219147 337.647156,389.378448 
	C338.019592,391.397278 336.353607,391.690521 335.271545,392.791870 
	C335.019562,392.997192 335.057770,392.977783 335.057770,392.977783 
z"/>
<path fill="#000000" opacity="1.000000" stroke="none" 
	d="
M335.002747,393.010071 
	C336.048889,393.193909 337.386414,392.709747 338.339630,395.478668 
	C327.139648,399.459839 315.946075,403.438721 304.752502,407.417603 
	C304.499847,406.778595 304.247162,406.139557 303.994507,405.500549 
	C313.490204,399.905090 324.596954,398.047821 334.787689,393.208099 
	C335.057770,392.977783 335.019562,392.997192 335.002747,393.010071 
z"/>
<path fill="#000000" opacity="1.000000" stroke="none" 
	d="
M356.658508,244.841949 
	C357.317474,241.844101 355.154480,237.082245 358.243317,237.089294 
	C362.186462,237.098251 359.489410,241.865616 360.307709,244.407959 
	C360.404602,244.709045 360.371948,245.078018 360.311584,245.399002 
	C360.031464,246.888458 361.051910,249.361130 358.728424,249.471237 
	C355.931396,249.603851 356.976898,246.912231 356.658508,244.841949 
z"/>
<path fill="#000000" opacity="1.000000" stroke="none" 
	d="
M360.028931,353.528992 
	C358.421509,355.611542 357.072235,355.185181 356.897247,353.217743 
	C356.570984,349.549377 356.061523,345.788452 357.746338,341.292664 
	C361.950012,345.044678 359.673126,349.387543 360.028931,353.528992 
z"/>
<path fill="#000000" opacity="1.000000" stroke="none" 
	d="
M314.686768,329.655518 
	C316.481812,334.595917 316.190399,338.901276 312.484039,342.403290 
	C309.476685,345.244843 305.797150,346.134888 301.851288,344.790588 
	C297.096588,343.170715 294.574951,339.774353 294.549286,334.650238 
	C294.523956,329.595795 297.200897,325.950897 302.227722,324.249298 
	C306.840546,322.687805 310.869293,324.351227 314.686768,329.655518 
z"/>
</svg>